<svg fill="none" height="250" viewBox="0 0 250 250" width="250" xmlns="http://www.w3.org/2000/svg" xmlns:xlink="http://www.w3.org/1999/xlink"><clipPath id="a"><path d="m0 0h250v250h-250z"/></clipPath><mask id="b" height="251" maskUnits="userSpaceOnUse" width="300" x="0" y="0"><path d="m300 .330017h-300v249.999983h300z" fill="#fff"/></mask><g clip-path="url(#a)"><path d="m0 0h250v250h-250z" fill="#fff"/><path d="m300 0h-300v250h300z" fill="#00aeef"/><g fill="#009eed" mask="url(#b)"><path d="m95.13 8.26002c0-3.01-2.39-5.47-5.33-5.47s-5.33 2.45-5.33 5.47c0 3.01998 2.39 5.46998 5.33 5.46998s5.33-2.45 5.33-5.46998zm-9.9 0c0-2.59 2.05-4.69001 4.58-4.69001s4.58 2.11001 4.58 4.69001c0 2.57998-2.05 4.68998-4.58 4.68998s-4.58-2.11-4.58-4.68998z"/><path d="m34.11 91.32c0-1.81-1.43-3.27-3.19-3.27s-3.19 1.47-3.19 3.27 1.43 3.27 3.19 3.27 3.19-1.47 3.19-3.27zm-5.63 0c0-1.38 1.09-2.5 2.44-2.5s2.44 1.12 2.44 2.5-1.09 2.5-2.44 2.5-2.44-1.12-2.44-2.5z"/><path d="m7.96-5.10999c0-.11-.04-.21-.13-.29-.15-.14-.39-.12999-.53.03001l-5.59999 6.41c-.14.16-.13001.39999.02999.54999.15001.14.39.13001.53-.02999l5.6-6.41c.06-.07.1-.17001.1-.26001z"/><path d="m13.04 55.79c0-.13-.07-.26-.19-.33l-6.06999-3.6c-.18-.11-.41-.04-.51.14s-.04.42.14.53l6.06999 3.6c.18.11.41.04.51-.14.03-.06.05-.13.05-.19z"/><path d="m118.91 5.35001c0-.09-.03-.18-.1-.26l-4.69-5.349994c-.14-.16-.38-.170002-.53-.030002s-.17.389999-.03.549999l4.69 5.349997c.14.16.38.17.53.03.08-.08.12-.18.12-.29z"/><path d="m89.09 95.69c0-.11-.04-.21-.12-.29-.15-.14-.39-.13-.53.03l-4.69 5.35c-.14.16-.13.4.03.55.15.14.39.13.53-.03l4.69-5.35c.06-.07.1-.17.1-.26z"/><path d="m8.21 81.55c0-.15-.08-.29-.22-.35l-4.26-2.04c-.15-.07-.32-.04-.43.09l-3.199997 3.52c-.11000022.12-.1300002.31-.0500002.45l2.2799972 4.21c.08.15.24.22.4.19l4.61-.92c.16-.03.28-.17.3-.33l.57-4.78s0-.03 0-.05zm-4.54-1.57 3.76 1.8-.51 4.22-4.07.81-2.009997-3.72z"/><path d="m63.9 44.22c0-.1-.04-.2-.11-.27l-3.32-3.4c-.12-.12-.29-.15-.44-.07l-4.18 2.19c-.15.08-.23.24-.2.4l.74 4.76c.03.17.15.29.31.32l4.64.75c.16.03.32-.06.39-.21l2.13-4.29c.03-.06.04-.12.04-.18zm-3.77-2.94 2.93 3.01-1.88 3.79-4.1-.66-.65-4.2 3.7-1.93z"/><path d="m59.72-1.06998s0-.07001-.02-.11001c-.06-.2-.27-.31999-.47-.25999-.4.12-3.96 1.229996-4.72 2.91-.19.42-.2.86-.02 1.27.31.71 1.05 1.46999 1.83 2.25999 1.96 2.00001 3.25 3.54 1.96 5.19999-1.08 1.38-2.5 2.34-3.76 3.18-1.45.97-2.7 1.81-2.98 3.03-.05.21.08.42.28.46.2.05.41-.08.45-.29.21-.92 1.34-1.68 2.66-2.56 1.3-.88 2.78-1.87 3.94-3.35 1.81-2.31999-.31-4.48999-2.02-6.22999-.73-.75-1.42-1.45-1.67-2.03-.09-.21-.09-.40999.01-.63999.52-1.160005 3.25-2.190005 4.25-2.500005.16-.05.27-.199999.27-.369995z"/><path d="m61.09 91.06c0-.13-.07-.26-.18-.33-.79-.48-1.16-1.82-1.59-3.37-.43-1.54-.91-3.28-1.94-4.85-1.62-2.47-4.27-1.03-6.4.12-.91.49-1.77.96-2.39 1.03-.22.03-.41-.04-.59-.2-.92-.86-1.07-3.82-1.06-4.9.01-.22-.16-.39-.37-.39s-.38.17-.38.38c0 .43-.03 4.25 1.3 5.49.34.31.74.45 1.18.4.75-.09 1.68-.59 2.65-1.12 2.45-1.33 4.27-2.13 5.42-.37.96 1.47 1.43 3.15 1.84 4.63.47 1.71.88 3.18 1.93 3.82.18.11.41.05.52-.14.04-.06.05-.13.05-.2z"/><path d="m118.42 41.76c0-.07-.02-.13-.05-.19-.1-.18-.33-.25-.51-.14-.04.02-3.95 2.4-3.01 6.05l.12.45c.82 3.15 1.47 5.64-.88 7.79-.16.14-.17.39-.03.54.14.16.38.17.53.03 2.7-2.46 1.96-5.29 1.11-8.56l-.12-.44c-.8-3.09 2.62-5.16 2.66-5.18.12-.07.19-.2.19-.33z"/><path d="m29.89 8.27001c.5633 0 1.02-.47009 1.02-1.04999s-.4567-1.05001-1.02-1.05001-1.02.47011-1.02 1.05001.4567 1.04999 1.02 1.04999z"/><path d="m3.08001 26.92c.56333 0 1.02-.4701 1.02-1.05s-.45667-1.05-1.02-1.05c-.56334 0-1.02.4701-1.02 1.05s.45666 1.05 1.02 1.05z"/><path d="m68.4 73.29c.5633 0 1.02-.4701 1.02-1.05s-.4567-1.05-1.02-1.05-1.02.4701-1.02 1.05.4567 1.05 1.02 1.05z"/><path d="m111.8 24.82c.563 0 1.02-.4701 1.02-1.05s-.457-1.05-1.02-1.05-1.02.4701-1.02 1.05.457 1.05 1.02 1.05z"/><path d="m114.33 84.8c.834 0 1.51-.6939 1.51-1.55 0-.856-.676-1.55-1.51-1.55s-1.51.694-1.51 1.55c0 .8561.676 1.55 1.51 1.55z"/><path d="m30.92 50.43c.834 0 1.51-.6939 1.51-1.55 0-.856-.676-1.55-1.51-1.55-.8339 0-1.51.694-1.51 1.55 0 .8561.6761 1.55 1.51 1.55z"/><path d="m86.36 41.76c.834 0 1.51-.6939 1.51-1.55 0-.856-.676-1.55-1.51-1.55-.8339 0-1.51.694-1.51 1.55 0 .8561.6761 1.55 1.51 1.55z"/><path d="m95.36 72.24c0-.09-.03-.19-.1-.26-.08-.1-.21-.14-.34-.12l-10.13 1.6c-.14.02-.25.12-.3.25s-.02.28.08.39l7.59 8.42c.09.1.23.15.37.11s.24-.14.27-.28l2.54-10.02s.01-.06.01-.1zm-9.75 1.87 8.87-1.4-2.22 8.77-6.64-7.37z"/><path d="m118.66 114.41c0-3.01-2.39-5.47-5.33-5.47s-5.33 2.45-5.33 5.47 2.39 5.47 5.33 5.47 5.33-2.45 5.33-5.47zm-9.91 0c0-2.59 2.05-4.69 4.58-4.69s4.58 2.11 4.58 4.69-2.05 4.69-4.58 4.69-4.58-2.11-4.58-4.69z"/><path d="m34.44 156.39c0-3.01-2.39-5.47-5.33-5.47s-5.33 2.45-5.33 5.47 2.39 5.47 5.33 5.47 5.33-2.45 5.33-5.47zm-9.91 0c0-2.59 2.05-4.69 4.58-4.69s4.58 2.11 4.58 4.69-2.05 4.69-4.58 4.69-4.58-2.11-4.58-4.69z"/><path d="m91.19 239.44c0-1.81-1.43-3.27-3.19-3.27s-3.19 1.47-3.19 3.27 1.43 3.27 3.19 3.27 3.19-1.47 3.19-3.27zm-5.63 0c0-1.38 1.09-2.5 2.44-2.5s2.44 1.12 2.44 2.5-1.09 2.5-2.44 2.5-2.44-1.12-2.44-2.5z"/><path d="m117.31 149.42c0-.09-.03-.18-.1-.26l-5.6-6.41c-.14-.16-.38-.17-.53-.03s-.17.39-.03.55l5.6 6.41c.14.16.38.17.53.03.08-.08.13-.18.13-.29z"/><path d="m112.7 200.32c0-.07-.02-.13-.05-.19-.1-.18-.33-.25-.51-.14l-6.07 3.6c-.18.11-.24.34-.14.53.1.18.33.25.51.14l6.07-3.6c.12-.07.19-.2.19-.33z"/><path d="m5.45001 148.12c0-.11-.04-.21-.12-.29-.15-.14-.39-.13-.53.03l-4.700003 5.35c-.1400005.16-.1300005.4.03.55.15.14.39.13.53-.03l4.690003-5.35c.06-.07.1-.17.1-.26z"/><path d="m35.27 249.16c0-.09-.03-.18-.1-.26l-4.69-5.35c-.14-.16-.38-.17-.53-.03s-.17.39-.03.55l4.69 5.35c.14.16.38.17.53.03.08-.08.12-.18.12-.29z"/><path d="m118.91 231.16c0-.1-.03-.19-.1-.26l-3.2-3.52c-.11-.12-.29-.16-.43-.09l-4.26 2.04c-.15.07-.23.23-.21.4l.57 4.78c.02.17.14.3.3.33l4.61.92c.16.03.32-.05.4-.19l2.28-4.21c.03-.06.05-.12.05-.19zm-3.67-3.05 2.83 3.11-2.01 3.72-4.07-.81-.51-4.22z"/><path d="m63.27 191.12c0-.14-.08-.28-.21-.34l-4.18-2.19c-.15-.08-.32-.05-.44.07l-3.32 3.4c-.12.12-.14.3-.07.45l2.13 4.29c.07.15.23.23.39.21l4.64-.75c.16-.03.29-.16.31-.32l.74-4.76s0-.04 0-.06zm-4.48-1.71 3.7 1.93-.65 4.2-4.1.66-1.88-3.79 2.93-3.01z"/><path d="m67.38 164.63s0-.06 0-.09c-.28-1.22-1.53-2.06-2.98-3.03-1.26-.84-2.68-1.8-3.76-3.18-1.29-1.65 0-3.2 1.96-5.2.78-.8 1.52-1.55 1.83-2.26.18-.41.17-.85-.02-1.27-.76-1.68-4.32-2.79-4.72-2.91-.2-.06-.41.06-.47.26-.06.21.06.42.25.48 1.01.3 3.73 1.34 4.25 2.5.1.22.11.42.01.64-.25.58-.94 1.28-1.67 2.03-1.71 1.74-3.83 3.9-2.02 6.23 1.15 1.48 2.63 2.47 3.94 3.35s2.45 1.64 2.66 2.56c.05.21.25.34.45.29.17-.04.29-.2.29-.38z"/><path d="m72.72 226.85c0-.08 0-.14 0-.18 0-.21-.17-.38-.38-.38s-.36.17-.37.39c.01 1.07-.14 4.05-1.06 4.9-.18.17-.36.23-.59.2-.61-.07-1.47-.54-2.39-1.03-2.13-1.15-4.78-2.59-6.4-.12-1.03 1.57-1.51 3.31-1.94 4.85-.43 1.55-.8 2.89-1.59 3.37-.18.11-.24.35-.13.53s.34.24.52.14c1.05-.64 1.46-2.11 1.93-3.82.41-1.48.88-3.16 1.84-4.63 1.16-1.76 2.98-.95 5.42.37.98.53 1.9 1.03 2.65 1.12.44.05.84-.09 1.18-.4 1.22-1.14 1.31-4.43 1.31-5.31z"/><path d="m17.65 110.96c0-.16-.1-.31-.25-.36l-10.49-3.85c-.09-.03-.2-.03-.29.01s-.16.12-.19.22l-3.75 10.76c-.07.2.03.42.23.49l10.49 3.85c.09.03.2.03.29-.01s.16-.12.19-.22l3.75-10.76s.02-.09.02-.13zm-10.64-3.36 9.78 3.59-3.5 10.03-9.78-3.59z"/><path d="m56.56 110.3c0-.09-.03-.19-.1-.26-.21-.23-5.28-5.75-11.65-5.13-.21.02-.36.2-.34.42.02.21.2.37.41.35 5.99-.58 10.98 4.84 11.03 4.89.14.16.38.17.53.02.08-.08.12-.18.12-.28z"/><path d="m4.96 204.12c0-.11-.04-.21-.13-.29-2.35-2.14-1.7-4.63-.88-7.79l.12-.44c.94-3.65-2.85-5.95-3.01-6.05-.179996-.11-.409996-.04-.509996.14-.1.19-.04.42.14.53.03.02 3.449996 2.1 2.659996 5.18l-.11.44c-.85 3.28-1.59 6.11 1.11 8.56.16.14.39.13.53-.03.06-.07.1-.17.1-.26z"/><path d="m89.02 156.39c.5633 0 1.02-.47 1.02-1.05s-.4567-1.05-1.02-1.05-1.02.47-1.02 1.05.4567 1.05 1.02 1.05z"/><path d="m115.83 175.04c.563 0 1.02-.47 1.02-1.05s-.457-1.05-1.02-1.05-1.02.47-1.02 1.05.457 1.05 1.02 1.05z"/><path d="m108.38 99.72c.563 0 1.02-.4701 1.02-1.05s-.457-1.05-1.02-1.05-1.02.4701-1.02 1.05.457 1.05 1.02 1.05z"/><path d="m46.09 128.65c.5633 0 1.02-.47 1.02-1.05s-.4567-1.05-1.02-1.05-1.02.47-1.02 1.05.4567 1.05 1.02 1.05z"/><path d="m50.52 221.41c.5633 0 1.02-.47 1.02-1.05s-.4567-1.05-1.02-1.05-1.02.47-1.02 1.05.4567 1.05 1.02 1.05z"/><path d="m7.12001 172.94c.56333 0 1.02-.47 1.02-1.05s-.45667-1.05-1.02-1.05-1.02.47-1.02 1.05.45667 1.05 1.02 1.05z"/><path d="m78.27 111.85c.834 0 1.51-.694 1.51-1.55s-.676-1.55-1.51-1.55c-.8339 0-1.51.694-1.51 1.55s.6761 1.55 1.51 1.55z"/><path d="m4.58 232.92c.83395 0 1.51-.694 1.51-1.55s-.67605-1.55-1.51-1.55-1.51.694-1.51 1.55.67605 1.55 1.51 1.55z"/><path d="m88 198.55c.8339 0 1.51-.694 1.51-1.55s-.6761-1.55-1.51-1.55c-.834 0-1.51.694-1.51 1.55s.676 1.55 1.51 1.55z"/><path d="m32.55 189.88c.834 0 1.51-.694 1.51-1.55s-.676-1.55-1.51-1.55c-.8339 0-1.51.694-1.51 1.55s.6761 1.55 1.51 1.55z"/><path d="m34.44 221.96s0-.09-.02-.13c-.05-.13-.16-.23-.3-.25l-10.13-1.6c-.12-.02-.25.03-.34.12s-.12.23-.08.36l2.54 10.02c.03.14.14.24.27.28s.27 0 .37-.11l7.59-8.42c.07-.07.1-.17.1-.26zm-10-1.13 8.87 1.4-6.64 7.37-2.22-8.77z"/><path d="m82.09 133.62c0-.1-.03-.19-.1-.26l-6.38-7.07c-.09-.1-.23-.15-.37-.11s-.24.14-.27.28l-2.13 8.42c-.03.12 0 .26.08.36s.21.14.34.12l8.51-1.35c.14-.02.25-.12.3-.25.01-.04.02-.08.02-.13zm-6.56-6.29 5.43 6.02-7.25 1.15z"/><path d="m146.45 225.26c0-3.01-2.39-5.47-5.33-5.47s-5.33 2.45-5.33 5.47 2.39 5.47 5.33 5.47 5.33-2.45 5.33-5.47zm-9.9 0c0-2.59 2.05-4.69 4.58-4.69s4.58 2.11 4.58 4.69-2.05 4.69-4.58 4.69-4.58-2.11-4.58-4.69z"/><path d="m226.63 183.28c0-3.01-2.39-5.47-5.33-5.47s-5.33 2.45-5.33 5.47 2.39 5.47 5.33 5.47 5.33-2.45 5.33-5.47zm-9.91 0c0-2.59 2.05-4.69 4.58-4.69s4.58 2.11 4.58 4.69-2.05 4.69-4.58 4.69-4.58-2.11-4.58-4.69z"/><path d="m165.61 100.23c0-1.81-1.43-3.27-3.19-3.27s-3.19 1.47-3.19 3.27 1.43 3.27 3.19 3.27 3.19-1.47 3.19-3.27zm-5.63 0c0-1.38 1.09-2.5 2.44-2.5s2.44 1.12 2.44 2.5-1.09 2.5-2.44 2.5-2.44-1.12-2.44-2.5z"/><path d="m139.46 196.66c0-.09-.03-.18-.1-.26l-5.6-6.41c-.14-.16-.38-.17-.53-.03s-.17.39-.03.55l5.6 6.41c.14.16.38.17.53.03.08-.08.13-.18.13-.29z"/><path d="m144.54 135.76c0-.07-.02-.13-.05-.19-.1-.18-.33-.25-.51-.14l-6.07 3.6c-.18.11-.24.34-.14.53.1.18.33.25.51.14l6.07-3.6c.12-.07.19-.2.19-.33z"/><path d="m250.41 186.2c0-.11-.04-.21-.12-.29-.16-.14-.39-.13-.53.03l-4.69 5.35c-.14.16-.13.4.03.55.16.14.39.13.53-.03l4.69-5.35c.06-.07.1-.17.1-.26z"/><path d="m220.58 95.85c0-.09-.03-.18-.1-.26l-4.69-5.35c-.14-.16-.38-.17-.53-.03s-.17.39-.03.55l4.69 5.35c.14.16.38.17.53.03.08-.08.12-.18.12-.29z"/><path d="m139.71 109.99s0-.03 0-.05l-.57-4.78c-.02-.17-.14-.3-.3-.33l-4.61-.92c-.16-.03-.32.05-.4.19l-2.28 4.21c-.08.14-.06.33.05.45l3.2 3.52c.11.12.29.16.43.09l4.26-2.04c.13-.06.22-.2.22-.35zm-1.29-4.45.51 4.22-3.76 1.8-2.83-3.11 2.01-3.72z"/><path d="m195.4 147.33c0-.06-.01-.12-.04-.18l-2.13-4.29c-.07-.15-.23-.23-.39-.21l-4.64.75c-.16.03-.29.16-.31.32l-.74 4.76c-.03.17.06.33.2.4l4.18 2.19c.15.08.32.05.44-.07l3.32-3.4c.07-.07.11-.17.11-.27zm-2.72-3.87 1.88 3.79-2.93 3.01-3.7-1.93.65-4.2 4.1-.66z"/><path d="m191.22 192.62c0-.17-.11-.32-.27-.37-1.01-.3-3.73-1.34-4.25-2.5-.1-.22-.11-.42-.01-.64.25-.58.94-1.28 1.67-2.03 1.71-1.74 3.83-3.9 2.02-6.23-1.15-1.48-2.63-2.47-3.94-3.35s-2.45-1.64-2.66-2.56c-.05-.21-.25-.34-.45-.29s-.33.26-.28.46c.28 1.22 1.53 2.06 2.98 3.03 1.26.84 2.68 1.8 3.76 3.18 1.29 1.65 0 3.2-1.96 5.2-.78.8-1.52 1.55-1.83 2.26-.18.41-.17.85.02 1.27.76 1.68 4.32 2.79 4.72 2.91.2.06.41-.06.47-.26.01-.04.02-.07.02-.11z"/><path d="m192.59 100.49c0-.07-.02-.13-.05-.2-.11-.18-.34-.24-.52-.14-1.05.64-1.46 2.11-1.93 3.82-.41 1.48-.88 3.16-1.84 4.63-1.16 1.76-2.98.95-5.42-.37-.98-.53-1.9-1.03-2.65-1.12-.44-.05-.84.09-1.18.4-1.33 1.24-1.31 5.06-1.3 5.49 0 .21.17.38.38.38s.38-.19.37-.39c-.02-1.07.14-4.05 1.06-4.9.18-.17.36-.23.59-.2.61.07 1.47.54 2.39 1.03 2.13 1.15 4.78 2.59 6.4.12 1.03-1.57 1.51-3.31 1.94-4.85.43-1.55.8-2.89 1.59-3.37.12-.07.18-.2.18-.33z"/><path d="m247.76 221.8c0-.16-.1-.31-.25-.36l-10.49-3.85c-.2-.07-.41.03-.48.23l-3.75 10.76c-.07.2.03.42.23.49l10.49 3.85c.2.07.41-.03.48-.23l3.75-10.76s.02-.09.02-.13zm-10.64-3.35 9.78 3.59-3.5 10.03-9.78-3.59z"/><path d="m205.94 234.38s0-.02 0-.04c-.02-.21-.2-.37-.41-.35-6 .58-10.98-4.84-11.03-4.89-.14-.16-.38-.17-.53-.02-.15.14-.16.39-.02.55.21.23 5.28 5.75 11.65 5.13.19-.02.34-.19.34-.38z"/><path d="m249.92 149.78c0-.13-.07-.26-.19-.33-.03-.02-3.45-2.1-2.66-5.18l.12-.45c.85-3.28 1.59-6.1-1.11-8.56-.16-.14-.39-.13-.53.03s-.12.4.03.54c2.35 2.14 1.7 4.63.88 7.79l-.12.45c-.94 3.65 2.85 5.95 3.01 6.05.18.11.41.04.51-.14.03-.06.05-.13.05-.19z"/><path d="m223.65 234.93c0-.07-.02-.13-.05-.19-.1-.18-.33-.25-.51-.14-.04.02-3.95 2.4-3.01 6.05l.12.44c.82 3.15 1.47 5.65-.88 7.79-.16.14-.17.39-.03.54.14.16.38.17.53.03 2.7-2.46 1.96-5.29 1.11-8.56l-.11-.44c-.8-3.09 2.62-5.16 2.66-5.18.12-.07.19-.2.19-.33z"/><path d="m161.39 185.38c.563 0 1.02-.47 1.02-1.05s-.457-1.05-1.02-1.05-1.02.47-1.02 1.05.457 1.05 1.02 1.05z"/><path d="m134.58 166.73c.563 0 1.02-.47 1.02-1.05s-.457-1.05-1.02-1.05-1.02.47-1.02 1.05.457 1.05 1.02 1.05z"/><path d="m146.08 242.04c.563 0 1.02-.47 1.02-1.05s-.457-1.05-1.02-1.05-1.02.47-1.02 1.05.457 1.05 1.02 1.05z"/><path d="m204.32 213.12c.563 0 1.02-.47 1.02-1.05s-.457-1.05-1.02-1.05-1.02.47-1.02 1.05.457 1.05 1.02 1.05z"/><path d="m199.9 120.36c.563 0 1.02-.47 1.02-1.05s-.457-1.05-1.02-1.05-1.02.47-1.02 1.05.457 1.05 1.02 1.05z"/><path d="m243.29 168.83c.563 0 1.02-.47 1.02-1.05s-.457-1.05-1.02-1.05-1.02.47-1.02 1.05.457 1.05 1.02 1.05z"/><path d="m172.14 230.92c.834 0 1.51-.694 1.51-1.55s-.676-1.55-1.51-1.55-1.51.694-1.51 1.55.676 1.55 1.51 1.55z"/><path d="m245.83 109.84c.834 0 1.51-.694 1.51-1.55s-.676-1.55-1.51-1.55-1.51.694-1.51 1.55.676 1.55 1.51 1.55z"/><path d="m162.41 144.22c.834 0 1.51-.694 1.51-1.55s-.676-1.55-1.51-1.55-1.51.694-1.51 1.55.676 1.55 1.51 1.55z"/><path d="m217.86 152.89c.834 0 1.51-.694 1.51-1.55s-.676-1.55-1.51-1.55-1.51.694-1.51 1.55.676 1.55 1.51 1.55z"/><path d="m226.86 119.31s0-.06-.01-.1l-2.54-10.02c-.03-.14-.14-.24-.27-.28s-.27 0-.37.11l-7.59 8.42c-.09.1-.12.25-.08.39.05.13.16.23.3.25l10.13 1.6c.12.02.25-.03.34-.12.06-.07.1-.16.1-.26zm-3.11-9.24 2.22 8.77-8.87-1.4 6.64-7.37z"/><path d="m177.58 204.7c0-.09-.03-.19-.1-.26-.08-.1-.21-.14-.34-.12l-8.51 1.35c-.14.02-.25.12-.3.25s-.02.28.08.39l6.38 7.07c.09.1.23.15.37.11s.24-.14.27-.28l2.13-8.42s.01-.06.01-.1zm-8.13 1.62 7.25-1.15-1.82 7.17z"/><path d="m250.16 77.14c0-3.01-2.39-5.47-5.33-5.47s-5.33 2.45-5.33 5.47 2.39 5.47 5.33 5.47 5.33-2.45 5.33-5.47zm-9.91 0c0-2.59 2.05-4.69 4.58-4.69s4.58 2.11 4.58 4.69-2.05 4.69-4.58 4.69-4.58-2.11-4.58-4.69z"/><path d="m165.94 35.16c0-3.01-2.39-5.47-5.33-5.47s-5.33 2.45-5.33 5.47 2.39 5.47 5.33 5.47 5.33-2.45 5.33-5.47zm-9.91 0c0-2.59 2.05-4.69 4.58-4.69s4.58 2.11 4.58 4.69-2.05 4.69-4.58 4.69-4.58-2.11-4.58-4.69z"/><path d="m248.81 42.12c0-.11-.04-.21-.12-.29-.16-.14-.39-.13-.53.03l-5.6 6.41c-.14.16-.13.4.03.55.16.14.39.13.53-.03l5.6-6.41c.06-.07.1-.17.1-.26z"/><path d="m136.94 43.43c0-.09-.03-.18-.1-.26l-4.69-5.35c-.14-.16-.38-.17-.53-.03s-.17.39-.03.55l4.69 5.35c.14.16.38.17.53.03.08-.08.12-.18.12-.29z"/><path d="m194.77.420012s0-.039997 0-.059997l-.74-4.760005c-.03-.17-.15-.29-.31-.32l-4.64-.75c-.16-.03-.32.06001-.39.21001l-2.13 4.289993c-.07.15-.05.330001.07.450001l3.32 3.400006c.12.12.29.14999.44.07l4.18-2.190007c.13-.070001.21-.200001.21-.340001zm-1.44-4.410002.65 4.200003-3.7 1.929997-2.93-3.009995 1.88-3.790005 4.1.66z"/><path d="m198.87 26.92c0-.17-.12-.33-.29-.38-.2-.05-.4.08-.45.29-.21.92-1.34 1.68-2.66 2.56-1.3.88-2.78 1.87-3.94 3.35-1.81 2.33.31 4.49 2.02 6.23.73.75 1.42 1.45 1.67 2.03.09.21.09.41-.01.64-.52 1.16-3.25 2.19-4.25 2.5-.2.06-.31.27-.26.48.06.2.27.32.47.26.4-.12 3.96-1.23 4.72-2.91.19-.42.2-.86.02-1.27-.31-.71-1.05-1.47-1.83-2.26-1.96-2-3.25-3.54-1.96-5.2 1.08-1.38 2.5-2.34 3.76-3.18 1.45-.97 2.7-1.81 2.98-3.03 0-.03 0-.06 0-.09z"/><path d="m149.15 80.59s0-.09-.02-.13l-3.75-10.76c-.07-.2-.29-.31-.48-.23l-10.49 3.85c-.2.07-.3.29-.23.49l3.75 10.76c.07.2.29.31.48.23l10.49-3.85c.15-.06.25-.21.25-.36zm-4.36-10.26 3.5 10.03-9.78 3.59-3.5-10.03z"/><path d="m188.06 81.25c0-.1-.04-.21-.12-.28-.15-.15-.39-.14-.53.02-.05.05-5.03 5.47-11.03 4.89-.21-.02-.39.14-.41.35-.02.22.13.4.34.42 6.37.61 11.44-4.9 11.65-5.13.07-.07.1-.17.1-.26z"/><path d="m136.45-12.57c0-.09-.03-.18-.1-.26-.14-.16-.38-.17-.53-.03-2.7 2.46-1.96 5.29002-1.11 8.56002l.12.44c.8 3.089996-2.62 5.16-2.66 5.18-.18.11-.24.34-.14.52999.1.18.33.25001.51.14001.04-.02 3.95-2.400005 3.01-6.05001l-.12-.44999c-.82-3.15-1.47-5.64002.88-7.79002.08-.08.13-.18.13-.29z"/><path d="m220.52 37.26c.563 0 1.02-.4701 1.02-1.05s-.457-1.05-1.02-1.05-1.02.4701-1.02 1.05.457 1.05 1.02 1.05z"/><path d="m247.33 18.6c.563 0 1.02-.4701 1.02-1.05s-.457-1.05-1.02-1.05-1.02.4701-1.02 1.05.457 1.05 1.02 1.05z"/><path d="m228.51 67.1c.563 0 1.02-.4701 1.02-1.05s-.457-1.05-1.02-1.05-1.02.4701-1.02 1.05.457 1.05 1.02 1.05z"/><path d="m177.59 65c.563 0 1.02-.4701 1.02-1.05s-.457-1.05-1.02-1.05-1.02.4701-1.02 1.05.457 1.05 1.02 1.05z"/><path d="m138.62 20.7c.563 0 1.02-.4701 1.02-1.05s-.457-1.05-1.02-1.05-1.02.4701-1.02 1.05.457 1.05 1.02 1.05z"/><path d="m209.77 82.8c.834 0 1.51-.6939 1.51-1.55 0-.856-.676-1.55-1.51-1.55s-1.51.694-1.51 1.55c0 .8561.676 1.55 1.51 1.55z"/><path d="m164.05 4.77002c.834 0 1.51-.69396 1.51-1.55s-.676-1.55001-1.51-1.55001-1.51.69397-1.51 1.55001.676 1.55 1.51 1.55z"/><path d="m213.59 57.92s0-.09-.02-.13c-.05-.13-.16-.23-.3-.25l-8.51-1.35c-.12-.02-.25.03-.34.12-.09.1-.12.23-.08.36l2.13 8.42c.03.14.14.24.27.28s.27 0 .37-.11l6.38-7.07c.07-.07.1-.17.1-.26zm-8.38-.87 7.25 1.15-5.43 6.02z"/></g><path d="m300 152h-300v99h300z" fill="#0566c6"/><path d="m193.59 177.645c37.417 0 67.75-1.84 67.75-4.11s-30.333-4.11-67.75-4.11-67.75 1.84-67.75 4.11 30.333 4.11 67.75 4.11z" fill="#00416d"/><path d="m233.67 91.615h-75.12c-1.98 0-3.58-1.6-3.58-3.58v-11.74c0-1.98 1.15-3.58 3.58-3.58h75.11c1.98 0 3.58 1.6 3.58 3.58v11.74c0 1.98-1.6 3.58-3.58 3.58z" fill="#136add"/><path d="m158.55 88.345c-.17 0-.31-.14-.31-.31v-11.74c0-.13.01-.23.03-.29.06-.01.15-.02.28-.02h75.11c.17 0 .31.14.31.31v11.74c0 .17-.14.31-.31.31z" fill="#0a4e99"/><path d="m231.67 78.535h-18.39v7.56h18.39z" fill="#78f2ff"/><path d="m202.04 81.665h-4.7v1.16h4.7z" fill="#78f2ff"/><path d="m185.42 81.665h-4.7v1.16h4.7z" fill="#78f2ff"/><path d="m168.79 81.665h-4.7v1.16h4.7z" fill="#39b54a"/><path d="m233.98 91.615h-73.41v1.36h73.41z" fill="#0a4e99"/><path d="m233.67 111.885h-75.12c-1.98 0-3.58-1.6-3.58-3.58v-11.74c0-1.98 1.15-3.58 3.58-3.58h75.11c1.98 0 3.58 1.6 3.58 3.58v11.74c0 1.98-1.6 3.58-3.58 3.58z" fill="#136add"/><path d="m158.55 108.615c-.17 0-.31-.14-.31-.31v-11.74c0-.13.01-.23.03-.29.06-.01.15-.02.28-.02h75.11c.17 0 .31.14.31.31v11.74c0 .17-.14.31-.31.31z" fill="#0a4e99"/><path d="m231.67 98.805h-18.39v7.56h18.39z" fill="#78f2ff"/><path d="m202.04 101.935h-4.7v1.16h4.7z" fill="#78f2ff"/><path d="m185.42 101.935h-4.7v1.16h4.7z" fill="#78f2ff"/><path d="m168.79 101.935h-4.7v1.16h4.7z" fill="#39b54a"/><path d="m233.98 111.885h-73.41v1.36h73.41z" fill="#0a4e99"/><path d="m233.67 132.155h-75.12c-1.98 0-3.58-1.6-3.58-3.58v-11.74c0-1.98 1.15-3.58 3.58-3.58h75.11c1.98 0 3.58 1.6 3.58 3.58v11.74c0 1.98-1.6 3.58-3.58 3.58z" fill="#136add"/><path d="m158.55 128.885c-.17 0-.31-.14-.31-.31v-11.74c0-.13.01-.23.03-.29.06-.01.15-.02.28-.02h75.11c.17 0 .31.14.31.31v11.74c0 .17-.14.31-.31.31z" fill="#0a4e99"/><path d="m231.67 119.075h-18.39v7.56h18.39z" fill="#78f2ff"/><path d="m202.04 122.205h-4.7v1.16h4.7z" fill="#78f2ff"/><path d="m185.42 122.205h-4.7v1.16h4.7z" fill="#78f2ff"/><path d="m168.79 122.205h-4.7v1.16h4.7z" fill="#39b54a"/><path d="m233.98 132.155h-73.41v1.36h73.41z" fill="#0a4e99"/><path d="m233.67 152.425h-75.12c-1.98 0-3.58-1.6-3.58-3.58v-11.74c0-1.98 1.15-3.58 3.58-3.58h75.11c1.98 0 3.58 1.6 3.58 3.58v11.74c0 1.98-1.6 3.58-3.58 3.58z" fill="#136add"/><path d="m158.55 149.155c-.17 0-.31-.14-.31-.31v-11.74c0-.13.01-.23.03-.29.06-.01.15-.02.28-.02h75.11c.17 0 .31.14.31.31v11.74c0 .17-.14.31-.31.31z" fill="#0a4e99"/><path d="m231.67 139.345h-18.39v7.56h18.39z" fill="#78f2ff"/><path d="m202.04 142.475h-4.7v1.16h4.7z" fill="#78f2ff"/><path d="m185.42 142.475h-4.7v1.16h4.7z" fill="#78f2ff"/><path d="m168.79 142.475h-4.7v1.16h4.7z" fill="#39b54a"/><path d="m233.98 152.425h-73.41v1.36h73.41z" fill="#0a4e99"/><path d="m233.67 172.695h-75.12c-1.98 0-3.58-1.6-3.58-3.58v-11.74c0-1.98 1.15-3.58 3.58-3.58h75.11c1.98 0 3.58 1.6 3.58 3.58v11.74c0 1.98-1.6 3.58-3.58 3.58z" fill="#136add"/><path d="m158.55 169.425c-.17 0-.31-.14-.31-.31v-11.74c0-.13.01-.23.03-.29.06-.01.15-.02.28-.02h75.11c.17 0 .31.14.31.31v11.74c0 .17-.14.31-.31.31z" fill="#0a4e99"/><path d="m231.67 159.615h-18.39v7.56h18.39z" fill="#78f2ff"/><path d="m202.04 162.745h-4.7v1.16h4.7z" fill="#78f2ff"/><path d="m185.42 162.745h-4.7v1.16h4.7z" fill="#78f2ff"/><path d="m168.79 162.745h-4.7v1.16h4.7z" fill="#39b54a"/><path d="m233.98 172.695h-73.41v1.36h73.41z" fill="#0a4e99"/><path d="m168.85 142.605c0 .4-.03.8-.09 1.2h-44.87c0-3.86 3.13-6.98 6.98-6.98.88 0 1.73.17 2.52.48.32-6.83 5.94-12.28 12.84-12.28 6 0 11.02 4.11 12.46 9.66.64-.16 1.31-.26 2-.26 4.51 0 8.17 3.66 8.17 8.18z" fill="#e6f8fe" stroke="#27aae1" stroke-linecap="round" stroke-linejoin="round"/><path d="m259.73 110.625c0 .4-.03.8-.09 1.2h-44.88c0-3.86 3.13-6.98 6.98-6.98.88 0 1.73.17 2.52.48.32-6.83 5.94-12.28 12.84-12.28 6 0 11.02 4.11 12.46 9.66.64-.16 1.31-.26 2-.26 4.51 0 8.17 3.66 8.17 8.18z" fill="#e6f8fe" stroke="#27aae1" stroke-linecap="round" stroke-linejoin="round"/><path d="m212.18 57.865h-15.41c-3.214 0-5.82 2.6057-5.82 5.82v13.84c0 3.2143 2.606 5.82 5.82 5.82h15.41c3.214 0 5.82-2.6057 5.82-5.82v-13.84c0-3.2143-2.606-5.82-5.82-5.82z" fill="#ff675c"/><path d="m213.22 70.605c0 1.92-.62 3.69-1.66 5.13-1.59 2.19-4.17 3.61-7.08 3.61s-5.49-1.42-7.08-3.61c-1.05-1.44-1.66-3.21-1.66-5.13s.62-3.69 1.66-5.13c1.59-2.19 4.17-3.61 7.08-3.61s5.49 1.42 7.08 3.61c1.05 1.44 1.66 3.21 1.66 5.13z" stroke="#fff" stroke-miterlimit="10"/><path d="m204.48 79.345c2.546 0 4.61-3.913 4.61-8.74s-2.064-8.74-4.61-8.74-4.61 3.913-4.61 8.74 2.064 8.74 4.61 8.74z" stroke="#fff" stroke-miterlimit="10"/><path d="m204.48 61.855v17.49" stroke="#fff" stroke-miterlimit="10"/><path d="m211.56 75.735c-1.59 2.19-4.17 3.61-7.08 3.61s-5.49-1.42-7.08-3.61c1.8-.96 4.31-1.55 7.08-1.55s5.28.59 7.08 1.55z" stroke="#fff" stroke-miterlimit="10"/><path d="m211.56 65.475c-1.8.96-4.31 1.55-7.08 1.55s-5.28-.59-7.08-1.55c1.59-2.19 4.17-3.61 7.08-3.61s5.49 1.42 7.08 3.61z" stroke="#fff" stroke-miterlimit="10"/><path d="m213.22 70.605h-17.49" stroke="#fff" stroke-miterlimit="10"/><path d="m239.83 136.725h-11.69c-4.098 0-7.42 3.322-7.42 7.42v10.15c0 4.098 3.322 7.42 7.42 7.42h11.69c4.098 0 7.42-3.322 7.42-7.42v-10.15c0-4.098-3.322-7.42-7.42-7.42z" fill="#fda801"/><path d="m226.48 146.135c0-2.37 1.39-3.63 3.1-3.63s3.09 1.24 3.09 3.62-1.37 3.65-3.09 3.65-3.1-1.24-3.1-3.63zm4.08-.02c0-1.28-.35-1.92-.97-1.92s-.99.64-.99 1.94.37 1.9.99 1.9.97-.64.97-1.92zm-1.45 8.6 4-6.06 3.93-6.14 1.81.4-4.02 6.1-3.91 6.1zm6.18-3.19c0-2.39 1.37-3.65 3.09-3.65s3.1 1.24 3.1 3.63-1.39 3.63-3.1 3.63-3.09-1.24-3.09-3.62zm4.07-.02c0-1.26-.37-1.9-.99-1.9s-.97.64-.97 1.92.35 1.92.97 1.92.99-.64.99-1.94z" fill="#fff"/><path d="m247.51 75.015-.31 2.39c-.15 1.11-.92 1.98-1.9 2.14l-2.12.35c-.44.07-.44.79 0 .86l2.17.36c.96.16 1.71 1.01 1.85 2.08l.32 2.44c.07.5.7.5.77 0l.31-2.39c.15-1.11.92-1.98 1.9-2.14l2.12-.35c.44-.07.44-.79 0-.86l-2.19-.37c-.95-.16-1.69-1-1.83-2.06l-.32-2.46c-.07-.5-.7-.5-.77 0z" fill="#fff"/><path d="m236.59 48.385-.31 2.39c-.15 1.11-.92 1.98-1.9 2.14l-2.12.35c-.44.07-.44.79 0 .86l2.17.36c.96.16 1.71 1.01 1.85 2.08l.32 2.44c.07.5.7.5.77 0l.31-2.39c.15-1.11.92-1.98 1.9-2.14l2.12-.35c.44-.07.44-.79 0-.86l-2.19-.37c-.95-.16-1.69-1-1.83-2.06l-.32-2.46c-.07-.5-.7-.5-.77 0z" fill="#fff"/><path d="m122.66 147.665-.31 2.39c-.15 1.11-.92 1.98-1.9 2.14l-2.12.35c-.44.07-.44.79 0 .86l2.17.36c.96.16 1.71 1.01 1.85 2.08l.32 2.44c.07.5.7.5.77 0l.31-2.39c.15-1.11.92-1.98 1.9-2.14l2.12-.35c.44-.07.44-.79 0-.86l-2.19-.37c-.95-.16-1.69-1-1.83-2.06l-.32-2.46c-.07-.5-.7-.5-.77 0z" fill="#fff"/><path d="m144.9 154.005-.28 2.1c-.13.98-.81 1.74-1.67 1.89l-1.87.31c-.39.06-.39.69 0 .76l1.91.32c.84.14 1.5.88 1.63 1.83l.28 2.15c.06.44.62.44.67 0l.28-2.1c.13-.97.81-1.74 1.67-1.88l1.87-.31c.39-.06.39-.69 0-.76l-1.92-.32c-.83-.14-1.48-.88-1.61-1.81l-.28-2.17c-.06-.44-.62-.44-.67 0z" fill="#fff"/><path d="m171.62 123.565h-17.35c-2.7 0-4.89-2.19-4.89-4.89v-17.35c0-2.7 1.97-4.89 4.89-4.89h17.35c3.24 0 4.89 2.19 4.89 4.89v17.35c0 2.7-2.19 4.89-4.89 4.89z" fill="#ff675c"/><path d="m162.9 102.735c.82-.17 1.51.16 1.85.85.31.62.37 1.28.32 1.96-.04.6-.13 1.19-.2 1.79-.03.24.07.36.32.33.87-.1 1.74-.16 2.62-.12.57.03 1.14.09 1.68.3.1.04.21.09.31.15.47.27.66.69.5 1.21-.07.23-.18.46-.3.67-.09.16-.09.27.01.42.11.16.2.34.25.52.11.4-.04.74-.4.98-.05.03-.1.06-.15.09-.19.1-.21.18-.16.39.09.33.14.65.05.99-.07.27-.22.47-.48.59-.15.07-.2.17-.2.33 0 .37-.08.73-.25 1.05-.21.39-.54.58-.98.58-1.07 0-2.15 0-3.22 0-.98 0-1.95.02-2.93.02-.08 0-.17-.02-.25-.06-.3-.15-.59-.32-.88-.47-.12-.06-.16-.13-.16-.26-.01-1.92-.02-3.84-.05-5.75 0-.15.04-.23.16-.32 1.26-.86 2.03-2.06 2.38-3.53.21-.86.23-1.73.14-2.6 0-.03 0-.05 0-.08 0-.01 0-.03 0-.04z" fill="#fff"/><path d="m159.82 112.295c0 .96.02 1.92.02 2.88 0 .47-.18.65-.65.66-1 0-1.99.02-2.99.02-.4 0-.61-.2-.61-.6-.02-1.96-.03-3.92-.05-5.88 0-.43.19-.63.63-.63 1 0 2-.02 3.01-.02.42 0 .61.19.62.61 0 .99.02 1.97.02 2.96z" fill="#fff"/><path d="m140.683 43h-117.3657c-4.0412 0-7.3173 3.3049-7.3173 7.3816v14.2368c0 4.0767 3.2761 7.3816 7.3173 7.3816h117.3657c4.041 0 7.317-3.3049 7.317-7.3816v-14.2368c0-4.0767-3.276-7.3816-7.317-7.3816z" fill="#0566c6"/><path d="m129.465 75h-106.93c-3.6092 0-6.535 2.7503-6.535 6.1429v15.7142c0 3.3929 2.9258 6.1429 6.535 6.1429h106.93c3.609 0 6.535-2.75 6.535-6.1429v-15.7142c0-3.3926-2.926-6.1429-6.535-6.1429z" fill="#0566c6"/><path d="m34.673 61.303c-.935.544-2.023.901-3.4.901-3.502 0-5.627-2.346-5.627-6.052 0-3.638 2.227-6.086 5.763-6.086 1.241 0 2.244.272 3.094.765l-.408 2.618c-.697-.544-1.513-.952-2.533-.952-1.836 0-3.009 1.394-3.009 3.638 0 2.278 1.241 3.638 3.077 3.638.952 0 1.802-.357 2.669-.901zm9.2924.816-.85-2.55h-4.063l-.782 2.431h-2.856l4.216-11.781h3.196l4.08 11.424zm-2.89-8.908-1.326 4.08h2.635zm13.3135 8.908-2.567-4.148h-.731v4.029h-2.89v-11.73h4.097c2.839 0 4.505 1.292 4.505 3.706 0 1.632-.816 2.737-2.21 3.332l2.873 4.318zm-.442-7.973c0-1.088-.68-1.683-1.938-1.683h-.935v3.417h.901c1.258 0 1.972-.612 1.972-1.734zm7.7046 7.854h-2.907v-11.73h2.907zm15.6514 0h-2.924v-4.76h-4.063v4.76h-2.907v-11.73h2.907v4.437h4.063v-4.437h2.924zm12.9035-5.882c0 3.621-2.21 6.103-5.627 6.103-3.366 0-5.576-2.448-5.576-6.069 0-3.638 2.21-6.103 5.61-6.103s5.593 2.448 5.593 6.069zm-2.924.017c0-2.329-.986-3.808-2.686-3.808-1.683 0-2.686 1.479-2.686 3.808s1.003 3.808 2.686 3.808c1.7 0 2.686-1.479 2.686-3.808zm12.4504 2.329c0 2.55-1.87 3.672-4.199 3.672-1.581 0-2.907-.34-4.097-.884l.425-2.482c1.207.646 2.55 1.088 3.723 1.088.833 0 1.411-.357 1.411-1.054 0-.663-.34-.969-1.989-1.598-2.346-.901-3.366-1.666-3.366-3.604 0-2.261 1.768-3.468 4.012-3.468 1.53 0 2.516.289 3.536.782l-.442 2.448c-1.054-.612-2.159-.952-3.06-.952-.884 0-1.309.374-1.309.918 0 .595.323.884 1.785 1.445 2.567.935 3.57 1.819 3.57 3.689zm10.4042-5.729h-3.451v9.265h-2.924v-9.265h-3.315v-2.465h9.282zm4.291 9.265h-2.907v-11.73h2.907zm12.048 0h-2.516l-4.624-7.021v7.021h-2.703v-11.73h2.822l4.318 6.562v-6.562h2.703zm11.782-1.02c-1.224.799-2.669 1.241-4.284 1.241-3.723 0-5.78-2.448-5.78-6.069 0-3.638 2.227-6.103 5.848-6.103 1.445 0 2.652.34 3.587.867l-.391 2.533c-.884-.561-1.921-1.003-3.128-1.003-2.023 0-3.009 1.496-3.009 3.689 0 2.21 1.02 3.757 3.043 3.757.646 0 1.105-.136 1.581-.374v-2.091h-2.04l-.34-2.159h4.913z" fill="#fff"/><path d="m36.38 82.2-4.98 8.72v5.08h-3.42v-5.04l-4.78-8.4 3.64-.5 3 5.72 2.9-5.58zm8.5806 13.94-1-3h-4.78l-.92 2.86h-3.36l4.96-13.86h3.76l4.8 13.44zm-3.4-10.48-1.56 4.8h3.1zm19.963 10.34h-2.96l-5.44-8.26v8.26h-3.18v-13.8h3.32l5.08 7.72v-7.72h3.18zm13.8616-1.2c-1.44.94-3.14 1.46-5.04 1.46-4.38 0-6.8-2.88-6.8-7.14 0-4.28 2.62-7.18 6.88-7.18 1.7 0 3.12.4 4.22 1.02l-.46 2.98c-1.04-.66-2.26-1.18-3.68-1.18-2.38 0-3.54 1.76-3.54 4.34 0 2.6 1.2 4.42 3.58 4.42.76 0 1.3-.16 1.86-.44v-2.46h-2.4l-.4-2.54h5.78zm17.1125-9.7h-4.06v10.9h-3.44v-10.9h-3.9v-2.9h10.92zm13.5833 3.98c0 4.26-2.6 7.18-6.6204 7.18-3.96 0-6.56-2.88-6.56-7.14 0-4.28 2.6-7.18 6.6-7.18 4.0004 0 6.5804 2.88 6.5804 7.14zm-3.44.02c0-2.74-1.16-4.48-3.1604-4.48-1.98 0-3.16 1.74-3.16 4.48s1.18 4.48 3.16 4.48c2.0004 0 3.1604-1.74 3.1604-4.48zm5.467 6.9v-13.8h4.44c3.36 0 5.42 1.5 5.42 4.5 0 3.12-2.22 4.72-5.56 4.72h-.88v4.58zm6.54-9.24c0-1.32-.78-1.98-2.3-1.98h-.86v4.06h.8c1.52 0 2.36-.66 2.36-2.08zm7.303 4.58-.2-3.02.4-.14c1.98-.58 2.66-1.18 2.66-2.14 0-.82-.6-1.32-1.7-1.32-1.26 0-2.62.6-3.78 1.42l-.42-2.8c1.18-.8 2.66-1.4 4.64-1.4 2.82 0 4.46 1.42 4.46 3.84 0 2.32-1.44 3.62-4.12 4.54l-.08.6zm-.94 4.66v-3.44h3.24v3.44z" fill="#fff"/><path d="m148.464 109h-126.9284c-3.0572 0-5.5356 2.932-5.5356 6.55v8.9c0 3.618 2.4784 6.55 5.5356 6.55h126.9284c3.058 0 5.536-2.932 5.536-6.55v-8.9c0-3.618-2.478-6.55-5.536-6.55z" fill="#33cc82"/><g fill="#fff"><path d="m28.54 124h-3.81v-6.9h1.33v5.72h2.3zm5.0754 0h-4.11v-6.9h4.01v1.12h-2.7v1.65h2.08l.18 1.11h-2.26v1.9h2.8zm5.6848-2.01c0 1.36-.98 2.01-2.6 2.01h-1.98v-6.9h2.01c1.55 0 2.29.7 2.29 1.79 0 .72-.4 1.19-1 1.44.77.24 1.28.74 1.28 1.66zm-1.51-2.99c0-.55-.33-.89-1.13-.89h-.67v1.83h.61c.78 0 1.19-.35 1.19-.94zm.24 2.95c0-.7-.47-1.07-1.35-1.07h-.69v2.11h.71c.84 0 1.33-.35 1.33-1.04zm3.7634 2.05h-1.33v-6.9h1.33zm7.0909 0h-1.33v-2.99h-2.93v2.99h-1.33v-6.9h1.33v2.73h2.93v-2.73h1.33zm9.1894 0h-1.33v-2.99h-2.93v2.99h-1.33v-6.9h1.33v2.73h2.93v-2.73h1.33zm5.5708 0h-4.11v-6.9h4.01v1.12h-2.7v1.65h2.08l.18 1.11h-2.26v1.9h2.8zm8.7948 0h-1.32l-.37-5.09-1.73 5.11h-1.18l-1.74-5.11-.35 5.09h-1.19l.53-6.9h1.68l1.75 5.2 1.74-5.2h1.65zm5.9353.07-.65-1.82h-2.62l-.6 1.75h-1.33l2.59-6.93h1.41l2.53 6.76zm-1.96-5.57-.94 2.67h1.87zm8.4936-.25h-2.15v5.75h-1.32v-5.75h-2.08v-1.15h5.36zm1.3962 4.29-1.14 2.87-.69-.17.46-2.7zm7.0303 1.46h-3.81v-6.9h1.33v5.72h2.3zm5.0754 0h-4.11v-6.9h4.01v1.12h-2.7v1.65h2.08l.18 1.11h-2.26v1.9h2.8zm5.6847-2.01c0 1.36-.98 2.01-2.6 2.01h-1.9798v-6.9h2.0098c1.55 0 2.29.7 2.29 1.79 0 .72-.4 1.19-1 1.44.77.24 1.28.74 1.28 1.66zm-1.51-2.99c0-.55-.33-.89-1.13-.89h-.67v1.83h.61c.78 0 1.19-.35 1.19-.94zm.24 2.95c0-.7-.47-1.07-1.35-1.07h-.69v2.11h.71c.84 0 1.33-.35 1.33-1.04zm3.764 2.05h-1.33v-6.9h1.33zm7.09 0h-1.33v-2.99h-2.93v2.99h-1.33v-6.9h1.33v2.73h2.93v-2.73h1.33zm8.63-.47c-.54.35-1.25.59-2.04.59-2 0-3.26-1.41-3.26-3.56 0-2.14 1.29-3.58 3.3-3.58.78 0 1.38.18 1.89.5l-.19 1.25c-.45-.34-.98-.61-1.65-.61-1.25 0-2 .94-2 2.43 0 1.5.78 2.42 2.02 2.42.65 0 1.22-.25 1.75-.6zm5.242.47h-4.11v-6.9h4.01v1.12h-2.7v1.65h2.08l.18 1.11h-2.26v1.9h2.8zm1.105 0v-6.9h2.02c1.58 0 2.53.73 2.53 2.12 0 1.49-1.06 2.24-2.64 2.24h-.59v2.54zm3.25-4.75c0-.72-.45-1.09-1.3-1.09h-.63v2.23h.58c.85 0 1.35-.35 1.35-1.14zm6.313 4.82-.65-1.82h-2.62l-.6 1.75h-1.33l2.59-6.93h1.41l2.53 6.76zm-1.96-5.57-.94 2.67h1.87zm8.493-.25h-2.15v5.75h-1.32v-5.75h-2.08v-1.15h5.36z"/><path d="m183.89 20.96c.03-.85-.14-1.56-.47-2.09-.24-.36-.54-.61-.92-.75-.4-.14-.94-.22-1.58-.22h-2.11s-.06.01-.07.06l-3.41 12.69s0 .04.01.06.03.03.06.03h1.38c1.61 0 2.82-.28 3.59-.84.63-.45 1.17-1.1 1.62-1.95.46-.88.88-2.04 1.26-3.43.42-1.52.63-2.71.64-3.53zm-6.3 8.12 2.58-9.62h.17c.89 0 1.4.35 1.54 1.05.14.73-.04 2.07-.56 4.01-.49 1.8-.99 3.03-1.51 3.64-.5.6-1.24.91-2.22.92z"/><path d="m189.04 26.34c.21-.77.34-1.45.38-2.01s0-1.05-.13-1.41c-.13-.38-.35-.67-.64-.85s-.68-.28-1.16-.28c-1.8 0-3.11 1.49-3.91 4.45-.5 1.86-.47 3.14.06 3.84.32.42.82.63 1.51.63 1.8 0 3.11-1.47 3.89-4.37zm-3.48 2.77c-.34 0-.52-.2-.56-.6-.03-.42.1-1.19.39-2.26s.57-1.84.82-2.28c.27-.42.57-.63.92-.63s.52.2.54.6c.03.43-.11 1.2-.4 2.32-.29 1.07-.57 1.83-.82 2.22-.24.42-.54.63-.89.63z"/><path d="m199.02 22.44c-.24-.34-.68-.5-1.3-.5-.74 0-1.44.36-2.05 1.09-.11-.73-.56-1.09-1.33-1.09-.67 0-1.3.34-1.9.99l.21-.77s0-.04-.01-.06-.03-.03-.06-.03h-1.56s-.06.01-.07.06l-2.28 8.5s0 .04.01.06.03.03.06.03h1.56s.06-.01.07-.06l1.51-5.6c.15-.57.34-.99.56-1.23.21-.24.47-.35.82-.35.15 0 .28.03.38.08.08.06.14.13.18.24.03.11.04.28.01.47-.03.21-.08.46-.15.75l-1.49 5.6s0 .04.01.06.03.03.06.03h1.63s.06-.01.07-.06l1.49-5.6c.17-.61.35-1.03.53-1.26.18-.21.46-.32.81-.32.31 0 .47.1.52.29.06.21 0 .63-.17 1.26l-1.49 5.6s0 .04.01.06.03.03.06.03h1.58s.06-.01.07-.06l1.81-6.78c.11-.63.08-1.12-.17-1.44z"/><path d="m205.73 21.96s-.03-.03-.06-.03h-1.56s-.06.01-.07.06l-.2.74c-.22-.61-.66-.94-1.26-.94-.73 0-1.35.36-1.88 1.06-.52.7-.98 1.8-1.37 3.27-.42 1.55-.56 2.71-.42 3.43.14.75.59 1.14 1.33 1.14.38 0 .71-.1.99-.28.22-.14.47-.39.74-.71l-.21.78s0 .04.01.06.03.03.06.03h1.56s.06-.01.07-.06l2.28-8.5s0-.04-.01-.06zm-2.78 4.29c-.27 1.02-.56 1.77-.84 2.26-.27.43-.57.66-.89.66-.35 0-.53-.2-.56-.6-.03-.43.11-1.21.4-2.32s.57-1.86.84-2.26c.27-.42.57-.63.92-.63.31 0 .47.21.52.63.01.47-.11 1.24-.39 2.26z"/><path d="m208.23 22.1s-.03-.03-.06-.03h-1.58s-.06.01-.07.06l-2.28 8.5s0 .04.01.06.03.03.06.03h1.58s.06-.01.07-.06l2.28-8.5s0-.04-.01-.06z"/><path d="m207.71 20.72c.31 0 .6-.11.88-.32.28-.22.46-.49.54-.8s.04-.59-.13-.81-.4-.34-.71-.34-.6.11-.89.32c-.28.22-.46.47-.53.78-.08.32-.06.6.11.82s.42.34.73.34z"/><path d="m216.21 17.91s-.03-.03-.06-.03h-1.72s-.06.01-.07.06l-1.27 4.73c-.18.7-.36 1.45-.5 2.25-.08.47-.17.98-.25 1.51.01-1.19-.03-2.33-.11-3.42l-.35-5.07s-.03-.06-.07-.06h-1.59s-.06.01-.07.06l-3.41 12.69s0 .04.01.06.03.03.06.03h1.69s.06-.03.07-.06l1.4-5.53c.04-.15.08-.31.11-.43.03-.13.06-.24.07-.32l.34-1.56.17-.85c-.01.46-.03.91-.01 1.34 0 .56.03 1.1.06 1.63l.39 5.71s.03.06.07.06h1.61s.06-.01.07-.06l3.41-12.69s-.03-.03-.03-.04z"/><path d="m219.62 27.6s-.03-.03-.06-.03h-1.47s-.06.01-.07.06c-.28 1.06-.74 1.61-1.37 1.61-.18 0-.32-.06-.4-.18-.27-.34-.22-1.16.11-2.41h3.55s.06-.01.07-.06l.06-.2c.52-1.95.52-3.29-.03-3.99-.31-.39-.77-.59-1.4-.59-.89 0-1.66.38-2.29 1.1-.61.73-1.13 1.86-1.54 3.36-.21.75-.34 1.42-.38 1.97-.04.56-.01 1.02.11 1.38.13.38.34.64.63.82s.67.27 1.13.27c1.55 0 2.68-1.02 3.34-3.04.01-.03.01-.06 0-.07zm-1.4-4.33c.29 0 .45.13.5.42.06.27 0 .82-.15 1.68h-1.84c.29-.84.53-1.38.74-1.65.2-.31.45-.45.75-.45z"/><path d="m224.34 26.81c-.06-.18-.17-.38-.31-.57s-.34-.42-.57-.66c-.56-.54-.8-1.01-.7-1.38.03-.13.08-.24.17-.35s.17-.21.28-.29.22-.14.35-.2c.13-.04.25-.07.39-.07.4 0 .75.14 1.05.4.01.01.04.03.07.01.03 0 .04-.03.04-.04l.39-1.47s0-.06-.03-.07c-.39-.25-.85-.38-1.34-.38-.7 0-1.33.22-1.88.67-.54.45-.92 1.02-1.1 1.72-.14.52-.14.98 0 1.35.14.36.49.8 1.02 1.33.15.15.28.29.36.4.1.11.15.22.2.31.07.18.08.39.01.64-.18.68-.6 1.01-1.3 1.01-.39 0-.75-.17-1.1-.49-.01-.01-.04-.03-.07-.01-.03 0-.04.03-.04.04l-.4 1.52s0 .06.03.07c.4.28.84.42 1.31.42.75 0 1.42-.24 2-.7.57-.46.98-1.09 1.17-1.87.13-.54.14-1.01.01-1.35z"/><path d="m227.91 20.72c.31 0 .6-.11.88-.32.28-.22.46-.49.54-.8s.04-.59-.13-.81-.4-.34-.71-.34-.6.11-.89.32c-.28.22-.46.47-.53.78-.08.32-.06.6.11.82s.42.34.73.34z"/><path d="m228.43 22.1s-.03-.03-.06-.03h-1.58s-.06.01-.07.06l-2.28 8.5s0 .04.01.06.03.03.06.03h1.58s.06-.01.07-.06l2.28-8.5s0-.04-.01-.06z"/><path d="m234.58 21.96s-.03-.03-.06-.03h-1.56s-.06.01-.07.06l-.2.74c-.22-.61-.66-.94-1.26-.94-.73 0-1.35.36-1.88 1.06-.52.7-.98 1.8-1.37 3.27-.42 1.55-.56 2.71-.42 3.43.14.75.59 1.14 1.33 1.14.38 0 .71-.1.99-.28.22-.14.47-.39.74-.71l-.21.78s0 .04.01.06.03.03.06.03h1.56s.06-.01.07-.06l2.28-8.5s0-.04-.01-.06zm-2.77 4.29c-.27 1.02-.56 1.77-.84 2.26-.27.43-.57.66-.89.66-.35 0-.53-.2-.56-.6-.03-.43.11-1.21.4-2.32s.57-1.86.84-2.26c.27-.42.57-.63.92-.63.31 0 .47.21.52.63 0 .47-.13 1.24-.39 2.26z"/><path d="m172.89 19.7-8.89 4.23 8.89 6.78z"/><path d="m178.44 13-4.74 2.26v15.45z"/><path d="m38.7586 17.0922c.5778 0 1.0461-.4684 1.0461-1.0461s-.4683-1.0461-1.0461-1.0461c-.5777 0-1.046.4684-1.046 1.0461s.4683 1.0461 1.046 1.0461z"/><path d="m38.7586 25.5461c.5778 0 1.0461-.4683 1.0461-1.0461 0-.5777-.4683-1.0461-1.0461-1.0461-.5777 0-1.046.4684-1.046 1.0461 0 .5778.4683 1.0461 1.046 1.0461z"/><path d="m38.7586 34c.5778 0 1.0461-.4684 1.0461-1.0461s-.4683-1.0461-1.0461-1.0461c-.5777 0-1.046.4684-1.046 1.0461s.4683 1.0461 1.046 1.0461z"/><path d="m31.5211 17.0922c.5778 0 1.0461-.4684 1.0461-1.0461s-.4683-1.0461-1.0461-1.0461c-.5777 0-1.0461.4684-1.0461 1.0461s.4684 1.0461 1.0461 1.0461z"/><path d="m31.5211 25.5461c.5778 0 1.0461-.4683 1.0461-1.0461 0-.5777-.4683-1.0461-1.0461-1.0461-.5777 0-1.0461.4684-1.0461 1.0461 0 .5778.4684 1.0461 1.0461 1.0461z"/><path d="m31.5211 34c.5778 0 1.0461-.4684 1.0461-1.0461s-.4683-1.0461-1.0461-1.0461c-.5777 0-1.0461.4684-1.0461 1.0461s.4684 1.0461 1.0461 1.0461z"/><path d="m24.2836 17.0922c.5778 0 1.0461-.4684 1.0461-1.0461s-.4683-1.0461-1.0461-1.0461c-.5777 0-1.0461.4684-1.0461 1.0461s.4684 1.0461 1.0461 1.0461z"/><path d="m24.2836 25.5461c.5778 0 1.0461-.4683 1.0461-1.0461 0-.5777-.4683-1.0461-1.0461-1.0461-.5777 0-1.0461.4684-1.0461 1.0461 0 .5778.4684 1.0461 1.0461 1.0461z"/><path d="m24.2836 34c.5778 0 1.0461-.4684 1.0461-1.0461s-.4683-1.0461-1.0461-1.0461c-.5777 0-1.0461.4684-1.0461 1.0461s.4684 1.0461 1.0461 1.0461z"/><path d="m17.0461 17.0922c.5777 0 1.0461-.4684 1.0461-1.0461s-.4684-1.0461-1.0461-1.0461-1.0461.4684-1.0461 1.0461.4684 1.0461 1.0461 1.0461z"/><path d="m17.0461 25.5461c.5777 0 1.0461-.4683 1.0461-1.0461 0-.5777-.4684-1.0461-1.0461-1.0461s-1.0461.4684-1.0461 1.0461c0 .5778.4684 1.0461 1.0461 1.0461z"/><path d="m17.0461 34c.5777 0 1.0461-.4684 1.0461-1.0461s-.4684-1.0461-1.0461-1.0461-1.0461.4684-1.0461 1.0461.4684 1.0461 1.0461 1.0461z"/><path d="m52.7369 150.193c.8818 0 1.5967-.715 1.5967-1.596 0-.882-.7149-1.597-1.5967-1.597s-1.5967.715-1.5967 1.597c0 .881.7149 1.596 1.5967 1.596z"/><path d="m52.7369 163.097c.8818 0 1.5967-.715 1.5967-1.597s-.7149-1.597-1.5967-1.597-1.5967.715-1.5967 1.597.7149 1.597 1.5967 1.597z"/><path d="m52.7369 176c.8818 0 1.5967-.715 1.5967-1.597 0-.881-.7149-1.596-1.5967-1.596s-1.5967.715-1.5967 1.596c0 .882.7149 1.597 1.5967 1.597z"/><path d="m41.6901 150.193c.8819 0 1.5967-.715 1.5967-1.596 0-.882-.7148-1.597-1.5967-1.597-.8818 0-1.5966.715-1.5966 1.597 0 .881.7148 1.596 1.5966 1.596z"/><path d="m41.6901 163.097c.8819 0 1.5967-.715 1.5967-1.597s-.7148-1.597-1.5967-1.597c-.8818 0-1.5966.715-1.5966 1.597s.7148 1.597 1.5966 1.597z"/><path d="m41.6901 176c.8819 0 1.5967-.715 1.5967-1.597 0-.881-.7148-1.596-1.5967-1.596-.8818 0-1.5966.715-1.5966 1.596 0 .882.7148 1.597 1.5966 1.597z"/><path d="m30.6434 150.193c.8818 0 1.5967-.715 1.5967-1.596 0-.882-.7149-1.597-1.5967-1.597s-1.5967.715-1.5967 1.597c0 .881.7149 1.596 1.5967 1.596z"/><path d="m30.6434 163.097c.8818 0 1.5967-.715 1.5967-1.597s-.7149-1.597-1.5967-1.597-1.5967.715-1.5967 1.597.7149 1.597 1.5967 1.597z"/><path d="m30.6434 176c.8818 0 1.5967-.715 1.5967-1.597 0-.881-.7149-1.596-1.5967-1.596s-1.5967.715-1.5967 1.596c0 .882.7149 1.597 1.5967 1.597z"/><path d="m19.5967 150.193c.8818 0 1.5966-.715 1.5966-1.596 0-.882-.7148-1.597-1.5966-1.597s-1.5967.715-1.5967 1.597c0 .881.7149 1.596 1.5967 1.596z"/><path d="m19.5967 163.097c.8818 0 1.5966-.715 1.5966-1.597s-.7148-1.597-1.5966-1.597-1.5967.715-1.5967 1.597.7149 1.597 1.5967 1.597z"/><path d="m19.5967 176c.8818 0 1.5966-.715 1.5966-1.597 0-.881-.7148-1.596-1.5966-1.596s-1.5967.715-1.5967 1.596c0 .882.7149 1.597 1.5967 1.597z"/><path d="m13.26 207v-13.8h4.44c3.36 0 5.42 1.5 5.42 4.5 0 3.12-2.22 4.72-5.56 4.72h-.88v4.58zm6.54-9.24c0-1.32-.78-1.98-2.3-1.98h-.86v4.06h.8c1.52 0 2.36-.66 2.36-2.08zm13.783 9.24h-8.78v-13.8h8.6v2.76h-5.24v2.6h4l.44 2.74h-4.44v2.92h5.42zm13.5226 0h-2.96l-5.44-8.26v8.26h-3.18v-13.8h3.32l5.08 7.72v-7.72h3.18zm11.5816.14-1-3h-4.78l-.92 2.86h-3.36l4.96-13.86h3.76l4.8 13.44zm-3.4-10.48-1.56 4.8h3.1zm25.3911-3.46-3.76 13.82h-3.46l-2.38-8.92-2.38 8.92h-3.44l-3.64-13.38 3.7-.58 2.08 8.78 2.24-8.64h3.44l2.24 8.64 1.96-8.64zm9.5128 13.94-1-3h-4.78l-.92 2.86h-3.36l4.96-13.86h3.76l4.8 13.44zm-3.4-10.48-1.56 4.8h3.1zm15.6629 10.48-3.0199-4.88h-.86v4.74h-3.4v-13.8h4.82c3.3399 0 5.2999 1.52 5.2999 4.36 0 1.92-.96 3.22-2.6 3.92l3.38 5.08zm-.52-9.38c0-1.28-.8-1.98-2.2799-1.98h-1.1v4.02h1.06c1.4799 0 2.3199-.72 2.3199-2.04zm14.488 9.38-1-3h-4.78l-.92 2.86h-3.36l4.96-13.86h3.76l4.8 13.44zm-3.4-10.48-1.56 4.8h3.1zm19.963 10.34h-2.96l-5.44-8.26v8.26h-3.18v-13.8h3.32l5.08 7.72v-7.72h3.18zm-109.085 10.1h-4.06v10.9h-3.44v-10.9h-3.9v-2.9h10.92zm10.3275 10.9h-8.78v-13.8h8.6v2.76h-5.24v2.6h4l.44 2.74h-4.44v2.92h5.42zm9.2227.14-3.02-4.88h-.86v4.74h-3.4v-13.8h4.82c3.34 0 5.3 1.52 5.3 4.36 0 1.92-.96 3.22-2.6 3.92l3.38 5.08zm-.52-9.38c0-1.28-.8-1.98-2.28-1.98h-1.1v4.02h1.06c1.48 0 2.32-.72 2.32-2.04zm15.4642 5.26c0 2.66-2 3.98-5.28 3.98h-4.62v-13.8h4.7c3.14 0 4.7 1.34 4.7 3.58 0 1.5-.88 2.42-2 2.92 1.5.48 2.5 1.44 2.5 3.32zm-3.56-5.86c0-.92-.56-1.5-1.88-1.5h-1.22v3.12h1.14c1.28 0 1.96-.62 1.96-1.62zm.34 5.62c0-1.18-.76-1.8-2.22-1.8h-1.22v3.56h1.26c1.38 0 2.18-.58 2.18-1.76zm14.0011 4.36-1-3h-4.78l-.92 2.86h-3.36l4.96-13.86h3.76l4.8 13.44zm-3.4-10.48-1.56 4.8h3.1zm17.4214-.56h-4.06v10.9h-3.44v-10.9h-3.9v-2.9h10.92zm9.0059 11.04-1-3h-4.78l-.92 2.86h-3.36l4.96-13.86h3.76l4.8 13.44zm-3.4-10.48-1.56 4.8h3.1zm17.5832 6.18c0 3-2.2 4.32-4.94 4.32-1.8602 0-3.4202-.4-4.8202-1.04l.5-2.92c1.42.76 3.0002 1.28 4.3802 1.28.98 0 1.66-.42 1.66-1.24 0-.78-.4-1.14-2.34-1.88-2.7602-1.06-3.9602-1.96-3.9602-4.24 0-2.66 2.08-4.08 4.7202-4.08 1.8 0 2.96.34 4.16.92l-.52 2.88c-1.24-.72-2.54-1.12-3.6-1.12-1.04 0-1.54.44-1.54 1.08 0 .7.38 1.04 2.1 1.7 3.02 1.1 4.2 2.14 4.2 4.34zm5.334.72-2.5 6.4-1.8-.42.88-5.98z"/><path d="m152.688 195h-1.197v-2.691h-2.637v2.691h-1.197v-6.21h1.197v2.457h2.637v-2.457h1.197zm3.583-1.197v-.972c-1.251.153-1.548.522-1.548.936 0 .315.198.504.531.504.369 0 .72-.18 1.017-.468zm1.08 1.197h-.927l-.09-.567c-.351.369-.801.657-1.449.657-.738 0-1.233-.45-1.233-1.206 0-1.053.864-1.512 2.619-1.683v-.126c0-.468-.27-.648-.747-.648-.504 0-.981.144-1.449.351l-.135-.864c.504-.198 1.035-.351 1.728-.351 1.125 0 1.683.414 1.683 1.458zm3.689-3.366c-.675.045-1.224.405-1.539.873v2.493h-1.08v-4.347h.918l.135.873c.288-.504.72-.927 1.395-.963zm3.044.432c0-.459-.306-.81-.765-.81-.477 0-.756.369-.756.846 0 .45.288.792.756.792.477 0 .765-.351.765-.828zm1.539 3.114c0 .936-1.026 1.458-2.286 1.458-1.179 0-2.07-.36-2.07-1.08 0-.405.279-.72.819-1.026-.171-.135-.252-.297-.252-.468 0-.243.189-.477.549-.693-.513-.243-.819-.693-.819-1.269 0-.954.774-1.539 1.746-1.539.504 0 .918.144 1.233.405l1.062-.378.144.864-.792.054c.081.171.117.369.117.567 0 .936-.801 1.494-1.737 1.494-.126 0-.243-.009-.351-.027-.108.081-.18.162-.18.234 0 .144.135.18.81.279l.558.054c.891.126 1.449.405 1.449 1.071zm-2.214.819c.774 0 1.215-.261 1.215-.585 0-.234-.189-.369-.729-.45l-.585-.072c-.297-.036-.432-.063-.648-.108-.315.225-.459.432-.459.657 0 .324.387.558 1.206.558zm5.316-2.196v-.972c-1.251.153-1.548.522-1.548.936 0 .315.198.504.531.504.369 0 .72-.18 1.017-.468zm1.08 1.197h-.927l-.09-.567c-.351.369-.801.657-1.449.657-.738 0-1.233-.45-1.233-1.206 0-1.053.864-1.512 2.619-1.683v-.126c0-.468-.27-.648-.747-.648-.504 0-.981.144-1.449.351l-.135-.864c.504-.198 1.035-.351 1.728-.351 1.125 0 1.683.414 1.683 1.458zm10.024 0h-1.188l-.333-4.581-1.557 4.599h-1.062l-1.566-4.599-.315 4.581h-1.071l.477-6.21h1.512l1.575 4.68 1.566-4.68h1.485zm1.004-4.347h1.08v2.844c0 .378.162.63.558.63.333 0 .675-.216.99-.54v-2.934h1.08v4.347h-.918l-.099-.612c-.405.387-.873.702-1.449.702-.819 0-1.242-.495-1.242-1.314zm5.933 4.347h-1.08v-6.327l1.08-.171zm3.518-1.197v-.972c-1.251.153-1.548.522-1.548.936 0 .315.198.504.531.504.369 0 .72-.18 1.017-.468zm1.08 1.197h-.927l-.09-.567c-.351.369-.801.657-1.449.657-.738 0-1.233-.45-1.233-1.206 0-1.053.864-1.512 2.619-1.683v-.126c0-.468-.27-.648-.747-.648-.504 0-.981.144-1.449.351l-.135-.864c.504-.198 1.035-.351 1.728-.351 1.125 0 1.683.414 1.683 1.458zm2.304-5.688c0 .36-.288.612-.639.612-.36 0-.648-.252-.648-.612 0-.369.288-.63.648-.63.351 0 .639.261.639.63zm-.108 5.688h-1.08v-4.347h1.08z"/></g><path d="m145 215h96v20h-96z" fill="#ba7401"/><path d="m156.832 231.112-2.416-3.904h-.688v3.792h-2.72v-11.04h3.856c2.672 0 4.24 1.216 4.24 3.488 0 1.536-.768 2.576-2.08 3.136l2.704 4.064zm-.416-7.504c0-1.024-.64-1.584-1.824-1.584h-.88v3.216h.848c1.184 0 1.856-.576 1.856-1.632zm9.219 3.424c0-1.312-.496-1.872-1.184-1.872-.528 0-.928.32-1.344.8v2.976c.336.16.624.24 1.104.24.816 0 1.424-.624 1.424-2.144zm2.432-.16c0 2.976-1.584 4.208-3.312 4.208-.704 0-1.2-.128-1.648-.272v2.8l-2.416.368v-10.816h2.128l.16 1.024c.544-.592 1.248-1.184 2.256-1.184 1.616 0 2.832 1.216 2.832 3.872zm5.92 4.128h-2.688v-8.32l-2.16.848-.304-2.08 2.768-1.28h2.384zm1.731 0v-1.904l3.728-3.728c.72-.736 1.088-1.248 1.088-1.968 0-.736-.512-1.152-1.392-1.152-.96 0-1.936.432-2.864 1.104l-.32-2.272c.928-.624 2.064-1.072 3.584-1.072 2.224 0 3.6 1.168 3.6 3.104 0 1.472-.736 2.432-2.048 3.68l-2.16 2.08h4.08l.336 2.128zm11.564 0h-2.608v-2.752h2.608zm1.686 0v-1.904l3.728-3.728c.72-.736 1.088-1.248 1.088-1.968 0-.736-.512-1.152-1.392-1.152-.96 0-1.936.432-2.864 1.104l-.32-2.272c.928-.624 2.064-1.072 3.584-1.072 2.224 0 3.6 1.168 3.6 3.104 0 1.472-.736 2.432-2.048 3.68l-2.16 2.08h4.08l.336 2.128zm16.492-3.616c0 2.48-1.824 3.824-4.368 3.824-1.344 0-2.448-.304-3.392-.736l.352-2.224c.88.432 1.904.784 3.024.784 1.088 0 1.888-.544 1.888-1.52 0-.88-.592-1.408-1.648-1.408-.656 0-1.136.144-1.552.32l-1.648-.368.368-5.872h6.384l.336 2.16h-4.704l-.128 1.92c.368-.096.864-.192 1.536-.192 2.096 0 3.552 1.152 3.552 3.312zm10.139-1.792c0 3.616-1.792 5.616-4.48 5.616-2.704 0-4.512-2-4.512-5.616s1.808-5.616 4.512-5.616c2.688 0 4.48 2 4.48 5.616zm-2.64 0c0-2.304-.592-3.584-1.84-3.584s-1.856 1.28-1.856 3.584.608 3.584 1.856 3.584 1.84-1.28 1.84-3.584z" fill="#fff"/><path d="m220.605 225.226-3.304 5.663-.56-.119 3.304-5.663zm3.578 3.01c0 1.218-.672 1.806-1.638 1.806-.504 0-.861-.077-1.302-.21v-4.788l.623-.098v2.107c.224-.231.546-.462 1.001-.462.721 0 1.316.532 1.316 1.645zm-.63.028c0-.728-.329-1.12-.777-1.12-.35 0-.658.231-.91.546v1.708c.21.077.364.112.672.112.651 0 1.015-.385 1.015-1.246zm1.408-1.603h.623v2.275c0 .343.147.574.511.574.329 0 .665-.217.966-.539v-2.31h.623v3.339h-.497l-.077-.483c-.315.294-.714.553-1.183.553-.637 0-.966-.378-.966-.98zm4.378 3.339h-.623v-4.956l.623-.098zm2.934-.917v-.777c-1.232.119-1.491.455-1.491.798 0 .273.182.448.497.448.364 0 .714-.182.994-.469zm.623.917h-.504l-.07-.448c-.266.273-.63.518-1.176.518-.602 0-.98-.364-.98-.931 0-.833.714-1.162 2.107-1.309v-.14c0-.42-.252-.567-.637-.567-.406 0-.791.126-1.155.287l-.084-.539c.399-.161.777-.28 1.295-.28.812 0 1.204.329 1.204 1.071zm3.689 0h-.623v-2.275c0-.343-.147-.574-.511-.574-.329 0-.665.217-.966.539v2.31h-.623v-3.339h.497l.077.483c.315-.287.707-.553 1.183-.553.63 0 .966.378.966.98z" fill="#fff"/><path d="m150.185 209.049-1.456-2.086h-.49v2.037h-.658v-4.83h1.316c.987 0 1.603.49 1.603 1.372 0 .735-.427 1.169-1.057 1.337l1.435 2.023zm-.343-3.472c0-.525-.329-.826-.973-.826h-.63v1.659h.56c.637 0 1.043-.287 1.043-.833zm3.985 1.687c0-.728-.329-1.12-.784-1.12-.378 0-.672.231-.938.588v1.603c.252.126.455.182.812.182.525 0 .91-.427.91-1.253zm.63-.028c0 1.218-.7 1.806-1.512 1.806-.329 0-.63-.063-.84-.147v1.316l-.623.091v-4.641h.497l.077.483c.252-.294.595-.553 1.085-.553.721 0 1.316.532 1.316 1.645zm.61 1.764v-.483l1.75-1.827c.427-.448.616-.749.616-1.134 0-.532-.308-.798-.861-.798-.49 0-.917.231-1.288.56l-.091-.609c.35-.301.826-.532 1.414-.532.917 0 1.477.525 1.477 1.337 0 .574-.245.959-.826 1.554l-1.344 1.372h2.156l.084.56zm6.833-1.484c0 1.008-.756 1.575-1.736 1.575-.595 0-1.029-.154-1.365-.364l.098-.595c.336.238.77.406 1.288.406.616 0 1.085-.322 1.085-.987 0-.553-.35-.91-1.001-.91-.35 0-.588.063-.805.154l-.469-.105.168-2.422h2.492l.084.56h-2.051l-.105 1.379c.182-.056.42-.119.756-.119.966 0 1.561.574 1.561 1.428zm1.43 1.484h-.693v-.833h.693zm4.298-2.366c0 1.568-.728 2.457-1.806 2.457-1.085 0-1.813-.889-1.813-2.457s.728-2.457 1.813-2.457c1.078 0 1.806.889 1.806 2.457zm-.644 0c0-1.232-.434-1.904-1.162-1.904s-1.169.672-1.169 1.904.441 1.904 1.169 1.904 1.162-.672 1.162-1.904zm4.978 0c0 1.568-.728 2.457-1.806 2.457-1.085 0-1.813-.889-1.813-2.457s.728-2.457 1.813-2.457c1.078 0 1.806.889 1.806 2.457zm-.644 0c0-1.232-.434-1.904-1.162-1.904s-1.169.672-1.169 1.904.441 1.904 1.169 1.904 1.162-.672 1.162-1.904zm4.978 0c0 1.568-.728 2.457-1.806 2.457-1.085 0-1.813-.889-1.813-2.457s.728-2.457 1.813-2.457c1.078 0 1.806.889 1.806 2.457zm-.644 0c0-1.232-.434-1.904-1.162-1.904s-1.169.672-1.169 1.904.441 1.904 1.169 1.904 1.162-.672 1.162-1.904zm4.416-2.408-3.304 5.663-.56-.119 3.304-5.663zm3.578 3.01c0 1.218-.672 1.806-1.638 1.806-.504 0-.861-.077-1.302-.21v-4.788l.623-.098v2.107c.224-.231.546-.462 1.001-.462.721 0 1.316.532 1.316 1.645zm-.63.028c0-.728-.329-1.12-.777-1.12-.35 0-.658.231-.91.546v1.708c.21.077.364.112.672.112.651 0 1.015-.385 1.015-1.246zm1.408-1.603h.623v2.275c0 .343.147.574.511.574.329 0 .665-.217.966-.539v-2.31h.623v3.339h-.497l-.077-.483c-.315.294-.714.553-1.183.553-.637 0-.966-.378-.966-.98zm4.378 3.339h-.623v-4.956l.623-.098zm2.934-.917v-.777c-1.232.119-1.491.455-1.491.798 0 .273.182.448.497.448.364 0 .714-.182.994-.469zm.623.917h-.504l-.07-.448c-.266.273-.63.518-1.176.518-.602 0-.98-.364-.98-.931 0-.833.714-1.162 2.107-1.309v-.14c0-.42-.252-.567-.637-.567-.406 0-.791.126-1.155.287l-.084-.539c.399-.161.777-.28 1.295-.28.812 0 1.204.329 1.204 1.071zm3.689 0h-.623v-2.275c0-.343-.147-.574-.511-.574-.329 0-.665.217-.966.539v2.31h-.623v-3.339h.497l.077.483c.315-.287.707-.553 1.183-.553.63 0 .966.378.966.98z" fill="#78f2ff"/><path d="m147 206.998h49.524v.35h-49.524z" fill="#78f2ff"/></g></svg>